# xmcd
#
# Track frame offsets: 
#        150
#        13966
#        24808
#        35669
#        47939
#        59008
#        73319
#        87466
#        102389
#        112279
#        127668
#
# Disc length: 1828 seconds
#
# Revision: 0
# Processed by: cddbd v1.5.2PL0 Copyright (c) Steve Scherf et al.
# Submitted via: ExactAudioCopy v1.0b1
#
DISCID=a107220b
DTITLE=Bill Monroe and His Bluegrass Boys - Kentucky Blue Grass
DYEAR=1970
DGENRE=Bluegrass
TTITLE0=I Live In The Past
TTITLE1=Cripple Creek
TTITLE2=Last Old Dollar
TTITLE3=The Long Black Veil
TTITLE4=Log Cabin In The Lane
TTITLE5=I Want To Go With You
TTITLE6=Kentucky Mandolin
TTITLE7=Sally Goodin
TTITLE8=Never Again
TTITLE9=Is The Blue Moon Still Shining
TTITLE10=Fire On The Mountain
EXTD=
EXTT0=
EXTT1=
EXTT2=
EXTT3=
EXTT4=
EXTT5=
EXTT6=
EXTT7=
EXTT8=
EXTT9=
EXTT10=
PLAYORDER=
